<svg id="__tmb-35354" xmlns="http://www.w3.org/2000/svg" viewBox="0 0 512 512" style="opacity: 1; transition: opacity 0.3s ease 0s; overflow: visible;"><rect x="0" y="0" width="512" height="512" fill="none"></rect><rect fill="none" viewBox="0 0 512 512" style="overflow: visible;"></rect><svg xmlns="http://www.w3.org/2000/svg" viewBox="-2.21439266204834 0 515.026123046875 512" style="overflow: visible;" data-bbox="26.693 97.21 458.613 317.58"><rect x="0" y="0" width="100%" height="100%" fill="#e08f7e" data-fl-background=""></rect><g transform="matrix(0.6605787873268127, 0, 0, 0.6605787873268127, 90.85580444335938, 10.402482032775879)"><path fill="#FFFFFF" d="M323.918 360.033c-0.213 0.792-0.604 1.751-0.926 2.731c-31.548-0.184-73.34-0.377-110.132-0.53
			c-0.278-1.401-0.519-2.809-0.741-4.221c-1.26-8.446-2.42-16.906-3.501-25.376c3.477-1.371 6.971-2.701 10.418-4.149
			c-0.12 0.05-0.165 0.068-0.325 0.135c0.861-0.357 1.682-0.684 2.554-1.03c3.066-1.543 1.056-6.156-2.153-5.009
			c-3.746 1.509-7.383 3.006-11.202 4.461c-0.581-4.727-1.126-9.459-1.651-14.193c0.876 0.299 1.75 0.603 2.619 0.921
			c2.76 1.011 5.552 1.958 8.262 3.097c2.588 1.759 5.702-1.637 3.642-4.04c-1.433-1.363-3.585-1.68-5.352-2.483
			c-3.257-1.215-6.532-2.37-9.826-3.474c-1.032-9.765-1.948-19.542-2.739-29.329c-0.519-7.307-1.222-14.779-0.866-22.142
			c0.479-9.33 2.477-6.491 7.971-2.159c3.97 3.456 7.706 7.168 11.491 10.822c2.781 2.691 6.006 6.159 10.263 5.373
			c6.361-1.078 12.649-2.59 18.976-3.857c5.684-1.253 11.078-2.481 16.848-3.69c3.761-0.959 7.888-1.351 11.197-3.51
			c2.281-1.594 1.548-4.684 1.973-7.069c0.528-4.687 1.17-9.367 1.863-14.032c0.153-0.319 0.266-0.691 0.325-1.124
			c0.239-1.373 0.318-2.813 0.802-4.125c5.033 4.237 7.396 10.867 10.356 16.583c4.212 9.285 10.782 21.546 15.55 30.549
			c0.019 0.037 0.043 0.067 0.063 0.102c0.016 0.129 0.031 0.258 0.047 0.387c-1.902 1.185-3.796 2.382-5.697 3.568
			c-3.077 1.91-6.14 3.853-9.277 5.664c-2.129 1.021-4.323 2.266-2.878 4.942c0.828 1.265 2.498 1.547 3.74 0.807
			c2.603-1.41 5.134-2.95 7.65-4.512c2.367-1.464 4.723-2.947 7.084-4.42c0.252 2.927 0.442 5.861 0.594 8.795
			c-4.277 1.064-8.55 2.143-12.85 3.112c-1.452 0.413-3.08 0.529-4.408 1.271c-1.227 0.81-1.619 2.557-0.782 3.784
			c0.874 1.368 2.61 1.448 3.973 0.847c1.318-0.344 2.935-0.686 4.544-1.061c3.264-0.773 6.522-1.574 9.778-2.385
			c0.102 2.35 0.194 4.7 0.204 7.053c-0.077 0.931-0.028 1.944 0.564 2.693c-5.401 6.334-11.2 13.477-12.825 20.904
			c0.089 3.39 5.03 3.596 5.446 0.282c0.907-2.83 2.429-5.428 4.023-7.921c7.952-11.169 17.265-21.418 27.152-30.9
			c1.76-1.557 4.347-3.726 7.142-5.337c-1.202 1.551-2.252 3.186-1.189 4.892c3.263 3.755 5.781-2.059 7.504-4.353
			c0.597-0.866 1.202-1.727 1.812-2.583c0.774 0.168 1.513 0.483 2.202 0.977c-1.379 1.788-2.75 3.583-4.095 5.396
			c-1.613 1.792-3.095 4.334-0.269 5.888c1.258 0.59 2.761 0.066 3.492-1.105c1.231-1.683 2.493-3.343 3.766-4.995
			c0.508 2.711 0.077 5.659-0.764 8.234c-3.604 8.804-9.311 16.564-14.118 24.729c-5.509 9.2-10.567 18.685-14.547 28.654
			C325.699 355.031 324.769 357.519 323.918 360.033z"></path><g><path fill="#323E51" d="M269.553 297.911c3.233 0.864 3.594-3.066 4.711-5.114c1.637-3.085 3.91-5.811 6.511-8.129
				c3.726-3.157 8.081-5.647 12.843-6.72c1.894-1.068 1.864-4.018-0.274-4.901c-3.913-0.909-9.988 3.132-13.247 5.242
				c-3.142 2.18-5.879 4.91-8.152 7.981c-1.877 2.492-3.311 5.289-4.261 8.26C267.205 295.941 268.173 297.513 269.553 297.911z"></path><path fill="#323E51" d="M240.074 301.824c1.975 3.702 6.957 0.424 4.638-2.98c-2.62-5.813-7.427-10.5-13.459-12.658
				c-5.237-1.725-11.167-2.741-16.55-1.16c-2.898 1.199-1.622 5.675 1.461 5.219c2.868-0.831 5.944-0.515 8.861-0.084
				C231.831 291.176 237.47 295.419 240.074 301.824z M217.491 289.668l0.001-0.002c-0.095 0.067-0.192 0.136-0.288 0.203
				c-0.057 0.03-0.114 0.059-0.171 0.089c0.288-0.153 0.549-0.357 0.768-0.598C217.719 289.479 217.594 289.563 217.491 289.668z"></path><path fill="#323E51" d="M284.534 310.296c-2.73-0.814-3.393 1.62-4.403 3.501c-0.645 1.055-1.386 2.055-2.252 2.94
				c-3.861 3.612-9.377 4.448-13.516 0.795c-0.497-0.345-0.917-0.802-1.326-1.271c0.549-0.474 1.053-0.984 1.489-1.457
				c2.072-2.295 4.157-4.77 5.397-7.622c0.6-1.582-0.255-3.506-1.898-4.024c-1.295-0.399-2.66-0.165-3.966 0.056
				c-2.994 0.25-5.984 0.625-8.961 1.016c-1.866 0.295-3.727 0.689-5.541 1.212c-2.527 0.841-2.628 4.072-0.552 5.493
				c2.552 1.805 5.022 3.701 7.4 5.727c-0.244 0.507-0.48 1.019-0.783 1.494c-1.432 2.295-3.434 4.343-5.954 5.41
				c-5.738 2.236-12.407 0.844-14.116-5.705c-0.784-1.241-2.573-1.611-3.784-0.78c-2.054 1.317-1.091 4.029-0.073 5.725
				c2.414 4.584 7.451 7.272 12.577 7.181c6.479 0.274 12.632-3.306 15.916-8.841c5.317 5.022 12.741 5.571 18.841 1.582
				C281.836 321.211 289.798 312.466 284.534 310.296z M235.945 319.923c0-0.003 0-0.004 0-0.008
				c0.035-0.255 0.049-0.505 0.034-0.749C236.019 319.419 235.979 319.672 235.945 319.923z"></path><path fill="#323E51" d="M388.281 262.611c-0.058-0.15-0.132-0.298-0.222-0.444c-3.482-3.439-7.686-6.18-11.32-9.49
				c-7.594-6.346-14.956-12.958-22.25-19.645c0.368-0.517-2.213-43.198-2.204-53.398c-0.13-4.841 0.489-9.865-0.737-14.593
				c-0.741-2.543-3.382-3.3-5.746-3.481c-4.012-0.404-8.063-0.19-12.084-0.018c-7.404 0.587-14.988 0.137-22.257 1.804
				c-7.3 1.827-6.304 6.632-6.482 12.734c-0.067 4.283-0.179 8.567-0.195 12.85c-5.798-5.092-11.569-10.213-17.273-15.412
				c-13.904-12.383-45.845-42.386-50.031-42.105c-4.963 0.334-47.461 52.495-59.931 67.232
				c-15.053 18.069-28.421 37.462-43.254 55.712c-6.146 7.739-12.458 15.345-18.301 23.319c-1.67 2.39-3.854 4.588-4.79 7.396
				c-1.197 5.462 6.735 9.326 10.849 12.425c-0.154 3.047 0.51 6.226 0.528 9.233c1.303 18.613 1.319 37.29 2.378 55.909
				c0.06 0.782 0.361 1.371 0.791 1.779c-0.078 1.507 0.949 3.116 2.853 2.979c11.37-0.043 218.881 1.585 242.256 1.101
				c1.925 0.319 3.054-1.286 3.025-2.834c0.401-0.84 0.492-1.91 0.377-2.872c0.054-4.419-0.138-8.835-0.301-13.251
				c-0.636-14.171-1.1-28.346-0.936-42.533c0.006-8.108 0.216-16.216 0.519-24.318c-0.013-1.662 0.157-3.377 0.254-5.088
				c1.894-0.874 3.856-2.819 5.282-3.625c3.233-2.493 6.484-5.053 9.281-8.03c-0.068 0.081-0.136 0.161-0.204 0.242
				c-0.086 0.078-0.171 0.157-0.257 0.235C389.246 265.375 389.129 263.701 388.281 262.611z M310.483 173.544
				c0.324-3.305-0.853-4.232 3.013-5.092c6.539-1.18 13.257-0.941 19.871-1.422c4.36-0.146 8.795-0.568 13.121 0.169
				c0.365 4.369 0.428 8.755 0.393 13.146c-0.69 0.046-1.384 0.137-2.032 0.134c-5.731 0.313-11.453 0.809-17.181 1.198
				c-5.7 0.383-11.284 0.873-16.975 1.575c-0.129 0.01-0.262 0.019-0.397 0.03C310.344 180.032 310.414 176.781 310.483 173.544z
				 M310.248 188.784c2.028-0.271 36.27-2.922 36.552-2.938c-0.091 4.658 0.905 32.776 2.172 42.108
				c-0.195-0.181-0.391-0.361-0.587-0.541c-12.613-11.554-25.571-22.719-38.451-33.972
				C310.11 193.099 310.243 189.963 310.248 188.784z M323.918 360.033c-0.213 0.792-0.604 1.751-0.926 2.731
				c-31.548-0.184-73.34-0.377-110.132-0.53c-0.278-1.401-0.519-2.809-0.741-4.221c-1.26-8.446-2.42-16.906-3.501-25.376
				c3.477-1.371 6.971-2.701 10.418-4.149c-0.12 0.05-0.165 0.068-0.325 0.135c0.861-0.357 1.682-0.684 2.554-1.03
				c3.066-1.543 1.056-6.156-2.153-5.009c-3.746 1.509-7.383 3.006-11.202 4.461c-0.581-4.727-1.126-9.459-1.651-14.193
				c0.876 0.299 1.75 0.603 2.619 0.921c2.76 1.011 5.552 1.958 8.262 3.097c2.588 1.759 5.702-1.637 3.642-4.04
				c-1.433-1.363-3.585-1.68-5.352-2.483c-3.257-1.215-6.532-2.37-9.826-3.474c-1.032-9.765-1.948-19.542-2.739-29.329
				c-0.519-7.307-1.222-14.779-0.866-22.142c0.479-9.33 2.477-6.491 7.971-2.159c3.97 3.456 7.706 7.168 11.491 10.822
				c2.781 2.691 6.006 6.159 10.263 5.373c6.361-1.078 12.649-2.59 18.976-3.857c5.684-1.253 11.078-2.481 16.848-3.69
				c3.761-0.959 7.888-1.351 11.197-3.51c2.281-1.594 1.548-4.684 1.973-7.069c0.528-4.687 1.17-9.367 1.863-14.032
				c0.153-0.319 0.266-0.691 0.325-1.124c0.239-1.373 0.318-2.813 0.802-4.125c5.033 4.237 7.396 10.867 10.356 16.583
				c4.212 9.285 10.782 21.546 15.55 30.549c0.019 0.037 0.043 0.067 0.063 0.102c0.016 0.129 0.031 0.258 0.047 0.387
				c-1.902 1.185-3.796 2.382-5.697 3.568c-3.077 1.91-6.14 3.853-9.277 5.664c-2.129 1.021-4.323 2.266-2.878 4.942
				c0.828 1.265 2.498 1.547 3.74 0.807c2.603-1.41 5.134-2.95 7.65-4.512c2.367-1.464 4.723-2.947 7.084-4.42
				c0.252 2.927 0.442 5.861 0.594 8.795c-4.277 1.064-8.55 2.143-12.85 3.112c-1.452 0.413-3.08 0.529-4.408 1.271
				c-1.227 0.81-1.619 2.557-0.782 3.784c0.874 1.368 2.61 1.448 3.973 0.847c1.318-0.344 2.935-0.686 4.544-1.061
				c3.264-0.773 6.522-1.574 9.778-2.385c0.102 2.35 0.194 4.7 0.204 7.053c-0.077 0.931-0.028 1.944 0.564 2.693
				c-5.401 6.334-11.2 13.477-12.825 20.904c0.089 3.39 5.03 3.596 5.446 0.282c0.907-2.83 2.429-5.428 4.023-7.921
				c7.952-11.169 17.265-21.418 27.152-30.9c1.76-1.557 4.347-3.726 7.142-5.337c-1.202 1.551-2.252 3.186-1.189 4.892
				c3.263 3.755 5.781-2.059 7.504-4.353c0.597-0.866 1.202-1.727 1.812-2.583c0.774 0.168 1.513 0.483 2.202 0.977
				c-1.379 1.788-2.75 3.583-4.095 5.396c-1.613 1.792-3.095 4.334-0.269 5.888c1.258 0.59 2.761 0.066 3.492-1.105
				c1.231-1.683 2.493-3.343 3.766-4.995c0.508 2.711 0.077 5.659-0.764 8.234c-3.604 8.804-9.311 16.564-14.118 24.729
				c-5.509 9.2-10.567 18.685-14.547 28.654C325.699 355.031 324.769 357.519 323.918 360.033z M368.162 341.377
				c0.248 5.319 0.438 10.639 0.613 15.96c0.031 1.925 0.037 3.855 0.025 5.782c-6.284-0.094-20.922-0.205-40.052-0.32
				c0.146-0.443 0.294-0.885 0.446-1.324c2.702-7.809 6-15.312 9.881-22.626c5.065-9.791 11.295-18.897 16.78-28.442
				c3.169-5.347 6.188-11.17 5.978-17.558c-0.13-2.721-0.734-5.089-1.708-7.06c0.051-0.066 0.102-0.131 0.152-0.197
				c2.09-2.521-1.241-5.643-3.571-4.068c-0.72-0.557-1.502-1.016-2.336-1.377c0.263-0.491 0.427-1.015 0.378-1.6
				c-0.108-2.328-3.398-3.398-4.815-1.513c-0.569 0.77-1.11 1.504-1.643 2.234c-2.032 0.199-4.193 0.839-6.416 1.968
				c-5.08 2.354-9.226 6.29-13.211 10.141c-4.105 4.089-8.026 8.364-11.849 12.717c-0.032-1.068-0.076-2.136-0.114-3.203
				c-0.032-0.726-0.065-1.453-0.098-2.179c1.511-0.379 3.022-0.758 4.533-1.136c3.524-0.767 2.434-6.022-1.065-5.361
				c-1.246 0.317-2.493 0.632-3.741 0.945c-0.193-3.561-0.43-7.119-0.777-10.667c1.725-1.047 3.459-2.079 5.211-3.083
				c0.43-0.246 0.928-0.725 1.176-1.429c0.872-2.197-1.701-4.495-3.775-3.366c-1.113 0.622-2.215 1.262-3.312 1.912
				c-0.018-0.129-0.032-0.258-0.05-0.386c-1.758-11.522-4.39-23.154-10.177-33.381c-0.376-0.684-0.761-1.364-1.155-2.042l0 0
				c-1.187-2.723-3.049-5.501-5.447-8.218c-4.856-6.387-10.8-11.894-18.161-15.306c-18.331-8.919-40.41-12.221-59.639-4.179
				c-26.291 10.205-38.194 39.564-42.005 65.659c-4.567 27.523-4.67 55.57-4.983 83.404c-21.19-0.079-37.156-0.129-42.836-0.135
				c-0.824-13.912-0.908-27.866-1.601-41.787c-0.249-5.766-0.593-11.526-0.993-17.282c0.024-2.543-0.965-5.452 0.409-7.76
				c4.609-7.086 10.216-13.46 15.371-20.147c16.493-20.549 31.319-42.388 48.46-62.423c12.962-16.103 26.959-31.331 40.222-47.183
				c0.864-1.341 3.737-4.296 5.461-6.853c4.438 3.302 8.646 6.919 12.86 10.497c12.84 10.919 25.147 22.442 38.153 33.171
				c18.597 15.947 37.289 31.781 55.7 47.944c5.686 4.97 11.332 9.991 16.785 15.219c2.115 2.394 5.93 4.863 7.037 8.132
				C367.77 296.087 366.989 318.752 368.162 341.377z M377.617 268.194c-1.388 1.119-2.824 2.176-4.298 3.177
				c-0.126-0.421-0.273-0.838-0.457-1.247c-5.983-8.356-14.598-14.615-22.027-21.661c-15.392-13.531-30.947-26.875-46.565-40.144
				c-19.098-16.05-37.569-32.815-56.616-48.917c-2.711-2.238-9.198-8.727-10.528-8.484c-1.202 0.39-3.214 3.485-3.809 4.283
				c-0.919 1.233-1.86 2.448-2.811 3.655c-9.316 11.561-19.381 22.495-29.002 33.801c-21.307 24.414-40.309 50.627-60.081 76.258
				c-5.867 7.709-12.464 14.951-17.672 23.134c-2.538-1.752-5.146-3.438-7.179-5.772c11.298-16.146 24.414-30.958 36.248-46.717
				c13.957-18.758 28.185-37.295 43.756-54.758c7.626-8.854 15.145-17.806 22.442-26.934c4.361-5.338 16.928-19.968 19.085-19.985
				c2.157-0.017 32.202 27.767 46.851 40.661c17.146 15.67 34.969 30.575 52.25 46.098c14.78 13.459 29.388 27.148 45.02 39.615
				C380.728 265.614 379.24 267.004 377.617 268.194z"></path></g><g><path fill="#FFFFFF" d="M310.483 173.544c0.324-3.305-0.853-4.232 3.013-5.092c6.539-1.18 13.257-0.941 19.871-1.422
				c4.36-0.146 8.795-0.568 13.121 0.169c0.365 4.369 0.428 8.755 0.393 13.146c-0.69 0.046-1.384 0.137-2.032 0.134
				c-5.731 0.313-11.453 0.809-17.181 1.198c-5.7 0.383-11.284 0.873-16.975 1.575c-0.129 0.01-0.262 0.019-0.397 0.03
				C310.344 180.032 310.414 176.781 310.483 173.544z"></path><path fill="#FFFFFF" d="M377.617 268.194c-1.388 1.119-2.824 2.176-4.298 3.177c-0.126-0.421-0.273-0.838-0.457-1.247
				c-5.983-8.356-14.598-14.615-22.027-21.661c-15.392-13.531-30.947-26.875-46.565-40.144
				c-19.098-16.05-37.569-32.815-56.616-48.917c-2.711-2.238-9.198-8.727-10.528-8.484c-1.202 0.39-3.214 3.485-3.809 4.283
				c-0.919 1.233-1.86 2.448-2.811 3.655c-9.316 11.561-19.381 22.495-29.002 33.801c-21.307 24.414-40.309 50.627-60.081 76.258
				c-5.867 7.709-12.464 14.951-17.672 23.134c-2.538-1.752-5.146-3.438-7.179-5.772c11.298-16.146 24.414-30.958 36.248-46.717
				c13.957-18.758 28.185-37.295 43.756-54.758c7.626-8.854 15.145-17.806 22.442-26.934c4.361-5.338 16.928-19.968 19.085-19.985
				c2.157-0.017 32.202 27.767 46.851 40.661c17.146 15.67 34.969 30.575 52.25 46.098c14.78 13.459 29.388 27.148 45.02 39.615
				C380.728 265.614 379.24 267.004 377.617 268.194z"></path></g></g><path text="we rescue" fill="#323e51" space="preserve" text-anchor="middle" offset="0.5" font-scale="contain" font-size="48" font-family="Titan One" transform="matrix(1.942732334136963, 0, 0, 1.942732334136963, 256.2311706542969, 334.3943786621094)" data-fl-textpath="" font-style="normal" font-weight="400" d="M-95.162-1.15L-95.162-1.15Q-95.782 0 -101.662 0Q-107.542 0 -107.782-1.15L-107.782-1.15L-109.412-9.89L-110.092-9.89L-111.622-1.15Q-111.772 0 -120.022 0L-120.022 0Q-122.332 0 -123.072-0.26Q-123.812-0.53 -124.102-1.15L-124.102-1.15Q-133.032-23.09 -133.032-24.24Q-133.032-25.39 -129.552-26.62Q-126.072-27.84 -122.852-27.84L-122.852-27.84Q-118.732-27.84 -118.582-25.63L-118.582-25.63L-116.952-12.48L-116.372-12.48L-115.802-23.09Q-115.752-24.29 -113.352-25.2Q-110.952-26.11 -108.502-26.11Q-106.052-26.11 -104.832-25.51Q-103.612-24.91 -103.562-24.05L-103.562-24.05L-103.032-12.48L-102.502-12.48L-100.922-24.82Q-100.772-25.97 -97.682-26.9Q-94.582-27.84 -92.232-27.84Q-89.882-27.84 -88.532-27.17L-88.532-27.17Q-86.332-26.11 -86.332-24.67L-86.332-24.67Q-86.332-24.53 -90.672-12.96Q-95.012-1.39 -95.162-1.15ZM-70.198-10.85L-71.788-10.85Q-71.788-7.73 -68.808-7.73L-68.808-7.73Q-67.078-7.73 -64.298-8.9Q-61.508-10.08 -61.368-10.08L-61.368-10.08Q-60.458-10.08 -58.968-7.34Q-57.478-4.61 -57.478-3.31L-57.478-3.31Q-57.478-1.44 -61.318-0.48Q-65.158 0.48 -68.828 0.48Q-72.508 0.48 -74.978-0.1Q-77.448-0.67 -79.008-1.56Q-80.568-2.45 -81.748-3.74Q-82.918-5.04 -83.498-6.22Q-84.068-7.39 -84.408-8.83L-84.408-8.83Q-84.888-10.94 -84.888-13.2L-84.888-13.2Q-84.888-21.94 -80.328-25.25L-80.328-25.25Q-78.068-26.93 -75.288-27.6Q-72.508-28.27 -68.708-28.27L-68.708-28.27Q-56.568-28.27 -56.568-19.82L-56.568-19.82Q-56.568-10.85 -70.198-10.85L-70.198-10.85ZM-71.878-17.86L-71.878-17.86L-71.878-14.69Q-70.488-14.69 -69.598-15.79Q-68.708-16.9 -68.708-18.48L-68.708-18.48Q-68.708-21.36 -70.198-21.36L-70.198-21.36Q-71.878-21.36 -71.878-17.86ZM-29.928-15.17L-29.928-15.17L-29.928-1.15Q-29.928-0.62 -32.638-0.31Q-35.348 0 -38.258 0Q-41.158 0 -42.028-0.26Q-42.888-0.53 -42.888-1.15L-42.888-1.15L-42.888-24.82Q-42.888-25.73 -40.228-26.78Q-37.558-27.84 -34.418-27.84Q-31.268-27.84 -30.888-26.11L-30.888-26.11L-30.408-23.9L-30.068-23.9Q-29.398-25.73 -26.858-27Q-24.308-28.27 -21.768-28.27Q-19.228-28.27 -18.188-27.46Q-17.158-26.64 -17.158-25.37Q-17.158-24.1 -17.348-22.13Q-17.548-20.16 -18.288-17.86Q-19.028-15.55 -20.228-15.55L-20.228-15.55Q-20.708-15.55 -23.258-16.27Q-25.798-16.99 -27.458-16.99Q-29.108-16.99 -29.518-16.51Q-29.928-16.03 -29.928-15.17ZM-0.55-10.85L-2.14-10.85Q-2.14-7.73  0.84-7.73L 0.84-7.73Q 2.57-7.73  5.35-8.9Q 8.14-10.08  8.28-10.08L 8.28-10.08Q 9.19-10.08  10.68-7.34Q 12.17-4.61  12.17-3.31L 12.17-3.31Q 12.17-1.44  8.33-0.48Q 4.49 0.48  0.82 0.48Q-2.86 0.48 -5.33-0.1Q-7.8-0.67 -9.36-1.56Q-10.92-2.45 -12.1-3.74Q-13.27-5.04 -13.85-6.22Q-14.42-7.39 -14.76-8.83L-14.76-8.83Q-15.24-10.94 -15.24-13.2L-15.24-13.2Q-15.24-21.94 -10.68-25.25L-10.68-25.25Q-8.42-26.93 -5.64-27.6Q-2.86-28.27  0.94-28.27L 0.94-28.27Q 13.08-28.27  13.08-19.82L 13.08-19.82Q 13.08-10.85 -0.55-10.85L-0.55-10.85ZM-2.23-17.86L-2.23-17.86L-2.23-14.69Q-0.84-14.69  0.05-15.79Q 0.94-16.9  0.94-18.48L 0.94-18.48Q 0.94-21.36 -0.55-21.36L-0.55-21.36Q-2.23-21.36 -2.23-17.86ZM 29.02 0.43L 29.02 0.43Q 21.05 0.43  17.35-1.1L 17.35-1.1Q 15.48-1.92  15.48-2.69L 15.48-2.69Q 15.48-4.66  16.63-7.3Q 17.78-9.94  18.65-9.94L 18.65-9.94Q 19.13-9.94  21.89-8.88Q 24.65-7.82  26.54-7.82Q 28.44-7.82  29.04-8.06Q 29.64-8.3  29.64-9Q 29.64-9.7  28.68-10.1Q 27.72-10.51  26.28-10.66Q 24.84-10.8  23.18-11.23Q 21.53-11.66  20.09-12.34Q 18.65-13.01  17.69-14.57Q 16.73-16.13  16.73-17.93Q 16.73-19.73  16.82-20.62Q 16.92-21.5  17.62-23.11Q 18.31-24.72  19.58-25.73Q 20.86-26.74  23.52-27.55Q 26.18-28.37  29.5-28.37Q 32.81-28.37  35.04-28.15Q 37.27-27.94  38.54-27.6Q 39.82-27.26  40.63-26.83L 40.63-26.83Q 42.02-26.11  42.02-25.25L 42.02-25.25Q 42.02-23.38  40.68-20.93Q 39.34-18.48  38.54-18.48Q 37.75-18.48  35.11-19.32Q 32.47-20.16  31.22-20.16L 31.22-20.16Q 29.21-20.16  29.21-19.01L 29.21-19.01Q 29.21-18.29  30.58-17.93Q 31.94-17.57  33.86-17.18Q 35.78-16.8  37.73-16.1Q 39.67-15.41  41.04-13.58Q 42.41-11.76  42.41-8.98L 42.41-8.98Q 42.41 0.43  29.02 0.43ZM 51.478-0.82L 51.478-0.82Q 50.328-1.34  49.008-2.4Q 47.688-3.46  46.828-4.9L 46.828-4.9Q 44.808-8.35  44.808-13.92L 44.808-13.92Q 44.808-17.38  45.908-20.09Q 47.018-22.8  48.598-24.29Q 50.188-25.78  52.248-26.74L 52.248-26.74Q 55.558-28.27  58.868-28.27L 58.868-28.27Q 64.438-28.27  66.628-27.41Q 68.808-26.54  68.808-24.48Q 68.808-22.42  68.068-20.09Q 67.318-17.76  66.118-17.76L 66.118-17.76Q 65.738-17.76  63.788-18.58Q 61.848-19.39  60.428-19.39Q 59.018-19.39  58.268-18.26Q 57.528-17.14  57.528-13.9Q 57.528-10.66  58.198-9.48Q 58.868-8.3  60.288-8.3Q 61.708-8.3  63.818-9.26Q 65.928-10.22  66.168-10.22L 66.168-10.22Q 67.078-10.22  67.918-8.06Q 68.758-5.9  68.758-4.22L 68.758-4.22Q 68.758-1.63  66.068-0.6Q 63.388 0.43  58.798 0.43Q 54.218 0.43  51.478-0.82ZM 81.338 0.43L 81.338 0.43Q 75.958 0.43  73.828-2.35Q 71.688-5.14  71.688-12.05L 71.688-12.05L 71.688-25.1Q 71.688-26.06  74.518-26.95Q 77.348-27.84  80.468-27.84L 80.468-27.84Q 84.648-27.84  84.648-25.68L 84.648-25.68L 84.648-13.49Q 84.648-9.84  84.938-8.18Q 85.228-6.53  86.378-6.53L 86.378-6.53Q 87.908-6.53  87.908-7.82L 87.908-7.82L 87.908-25.1Q 87.908-26.11  90.888-26.98Q 93.868-27.84  97.368-27.84Q 100.868-27.84  100.868-25.97L 100.868-25.97L 100.868-1.25Q 100.868-0.58  97.848-0.29Q 94.828 0  91.898 0Q 88.968 0  88.918-0.77L 88.918-0.77L 88.438-3.89L 88.058-3.89Q 87.628-2.16  86.328-1.06L 86.328-1.06Q 85.658-0.48  84.338-0.02Q 83.018 0.43  81.338 0.43ZM 118.442-10.85L 116.852-10.85Q 116.852-7.73  119.832-7.73L 119.832-7.73Q 121.562-7.73  124.342-8.9Q 127.132-10.08  127.272-10.08L 127.272-10.08Q 128.182-10.08  129.672-7.34Q 131.162-4.61  131.162-3.31L 131.162-3.31Q 131.162-1.44  127.322-0.48Q 123.482 0.48  119.812 0.48Q 116.132 0.48  113.662-0.1Q 111.192-0.67  109.632-1.56Q 108.072-2.45  106.892-3.74Q 105.722-5.04  105.142-6.22Q 104.572-7.39  104.232-8.83L 104.232-8.83Q 103.752-10.94  103.752-13.2L 103.752-13.2Q 103.752-21.94  108.312-25.25L 108.312-25.25Q 110.572-26.93  113.352-27.6Q 116.132-28.27  119.932-28.27L 119.932-28.27Q 132.072-28.27  132.072-19.82L 132.072-19.82Q 132.072-10.85  118.442-10.85L 118.442-10.85ZM 116.762-17.86L 116.762-17.86L 116.762-14.69Q 118.152-14.69  119.042-15.79Q 119.932-16.9  119.932-18.48L 119.932-18.48Q 119.932-21.36  118.442-21.36L 118.442-21.36Q 116.762-21.36  116.762-17.86Z"></path><path text="cats" fill="#323e51" space="preserve" text-anchor="middle" offset="0.5" font-scale="contain" font-size="48" font-family="Titan One" transform="matrix(1.942732334136963, 0, 0, 1.942732334136963, 258.79168701171875, 413.8576965332031)" data-fl-textpath="" font-style="normal" font-weight="400" d="M-47.498-0.82L-47.498-0.82Q-48.648-1.34 -49.968-2.4Q-51.288-3.46 -52.148-4.9L-52.148-4.9Q-54.168-8.35 -54.168-13.92L-54.168-13.92Q-54.168-17.38 -53.068-20.09Q-51.958-22.8 -50.378-24.29Q-48.788-25.78 -46.728-26.74L-46.728-26.74Q-43.418-28.27 -40.108-28.27L-40.108-28.27Q-34.538-28.27 -32.348-27.41Q-30.168-26.54 -30.168-24.48Q-30.168-22.42 -30.908-20.09Q-31.658-17.76 -32.858-17.76L-32.858-17.76Q-33.238-17.76 -35.188-18.58Q-37.128-19.39 -38.548-19.39Q-39.958-19.39 -40.708-18.26Q-41.448-17.14 -41.448-13.9Q-41.448-10.66 -40.778-9.48Q-40.108-8.3 -38.688-8.3Q-37.268-8.3 -35.158-9.26Q-33.048-10.22 -32.808-10.22L-32.808-10.22Q-31.898-10.22 -31.058-8.06Q-30.218-5.9 -30.218-4.22L-30.218-4.22Q-30.218-1.63 -32.908-0.6Q-35.588 0.43 -40.178 0.43Q-44.758 0.43 -47.498-0.82ZM-18.168 0.43L-18.168 0.43Q-22.538 0.43 -25.028-1.63L-25.028-1.63Q-26.038-2.5 -26.788-4.18Q-27.528-5.86 -27.528-8.11Q-27.528-10.37 -26.448-12.05Q-25.368-13.73 -23.828-14.64Q-22.298-15.55 -20.228-16.13L-20.228-16.13Q-17.108-16.94 -13.368-16.94L-13.368-16.94L-11.788-16.94Q-11.788-18.91 -13.128-19.73L-13.128-19.73Q-13.708-20.06 -14.878-20.06Q-16.058-20.06 -17.708-19.44Q-19.368-18.82 -20.468-18.17Q-21.578-17.52 -21.958-17.52L-21.958-17.52Q-22.828-17.52 -24.308-19.8Q-25.798-22.08 -25.798-23.95L-25.798-23.95Q-25.798-24.58 -24.028-25.58Q-22.248-26.59 -19.008-27.43Q-15.768-28.27 -12.698-28.27Q-9.628-28.27 -7.388-27.77Q-5.158-27.26 -3.748-26.54Q-2.328-25.82 -1.348-24.62Q-0.358-23.42  0.142-22.46Q 0.652-21.5  0.892-19.97L 0.892-19.97Q 1.222-18.19  1.222-15.6L 1.222-15.6L 1.222-1.15Q 1.222-0.62 -1.348-0.31Q-3.908 0 -6.428 0Q-8.948 0 -9.698-0.14Q-10.438-0.29 -10.588-0.48Q-10.728-0.67 -10.828-1.15L-10.828-1.15L-11.208-3.89L-11.588-3.89Q-12.788 0.43 -18.168 0.43ZM-11.738-7.54L-11.738-7.54L-11.738-13.15Q-12.988-13.15 -13.748-12.1Q-14.518-11.04 -14.518-9.7L-14.518-9.7Q-14.518-6.53 -13.078-6.53L-13.078-6.53Q-12.458-6.53 -12.098-6.84Q-11.738-7.15 -11.738-7.54ZM 23.444-0.43Q 22.584 0.38  19.514 0.38Q 16.444 0.38  14.424-0.02Q 12.404-0.43  10.584-1.63L 10.584-1.63Q 7.084-3.98  7.084-11.42L 7.084-11.42L 7.084-18.91L 4.684-18.91Q 4.154-18.91  3.764-20.02Q 3.384-21.12  3.384-23.04Q 3.384-24.96  3.984-26.42Q 4.584-27.89  5.544-27.89L 5.544-27.89L 7.084-27.89L 7.084-33.7Q 7.084-35.18  9.984-36.1Q 12.884-37.01  15.674-37.01L 15.674-37.01Q 20.044-37.01  20.044-34.85L 20.044-34.85L 20.044-27.89L 23.594-27.89Q 24.844-27.89  24.844-24.29L 24.844-24.29Q 24.844-21.94  24.284-20.42Q 23.734-18.91  22.874-18.91L 22.874-18.91L 20.044-18.91L 20.044-10.13Q 20.044-8.83  21.144-8.28Q 22.244-7.73  23.084-7.73Q 23.924-7.73  24.124-6.91Q 24.314-6.1  24.314-4.46L 24.314-4.46Q 24.314-1.25  23.444-0.43ZM 40.78 0.43L 40.78 0.43Q 32.81 0.43  29.11-1.1L 29.11-1.1Q 27.24-1.92  27.24-2.69L 27.24-2.69Q 27.24-4.66  28.39-7.3Q 29.54-9.94  30.41-9.94L 30.41-9.94Q 30.89-9.94  33.65-8.88Q 36.41-7.82  38.3-7.82Q 40.2-7.82  40.8-8.06Q 41.4-8.3  41.4-9Q 41.4-9.7  40.44-10.1Q 39.48-10.51  38.04-10.66Q 36.6-10.8  34.94-11.23Q 33.29-11.66  31.85-12.34Q 30.41-13.01  29.45-14.57Q 28.49-16.13  28.49-17.93Q 28.49-19.73  28.58-20.62Q 28.68-21.5  29.38-23.11Q 30.07-24.72  31.34-25.73Q 32.62-26.74  35.28-27.55Q 37.94-28.37  41.26-28.37Q 44.57-28.37  46.8-28.15Q 49.03-27.94  50.3-27.6Q 51.58-27.26  52.39-26.83L 52.39-26.83Q 53.78-26.11  53.78-25.25L 53.78-25.25Q 53.78-23.38  52.44-20.93Q 51.1-18.48  50.3-18.48Q 49.51-18.48  46.87-19.32Q 44.23-20.16  42.98-20.16L 42.98-20.16Q 40.97-20.16  40.97-19.01L 40.97-19.01Q 40.97-18.29  42.34-17.93Q 43.7-17.57  45.62-17.18Q 47.54-16.8  49.49-16.1Q 51.43-15.41  52.8-13.58Q 54.17-11.76  54.17-8.98L 54.17-8.98Q 54.17 0.43  40.78 0.43Z"></path></svg></svg>